<svg width="66" height="67" viewBox="0 0 66 67" fill="none" xmlns="http://www.w3.org/2000/svg">
<rect x="13.9109" y="11.6287" width="38.95" height="16.6929" rx="2.78215" fill="url(#paint0_linear_255_528)"/>
<g filter="url(#filter0_bi_255_528)">
<rect x="5.56445" y="14.4108" width="55.6429" height="41.7322" rx="8.34643" fill="#1D1D1D" fill-opacity="0.05"/>
<rect x="5.56445" y="14.4108" width="55.6429" height="41.7322" rx="8.34643" fill="url(#paint1_linear_255_528)" fill-opacity="0.2"/>
<rect x="5.84267" y="14.689" width="55.0865" height="41.1757" rx="8.06822" stroke="url(#paint2_linear_255_528)" stroke-opacity="0.1" stroke-width="0.556429"/>
</g>
<g filter="url(#filter1_i_255_528)">
<path fill-rule="evenodd" clip-rule="evenodd" d="M12.8547 21.8519C13.3547 21.2686 14.2329 21.2011 14.8162 21.7011L32.4806 36.842C33.0015 37.2885 33.7702 37.2885 34.2912 36.842L51.9556 21.7011C52.5389 21.2011 53.4171 21.2686 53.9171 21.8519C54.4171 22.4353 54.3495 23.3134 53.7662 23.8134L36.1018 38.9544C34.539 40.2939 32.2328 40.2939 30.67 38.9544L13.0056 23.8134C12.4223 23.3134 12.3547 22.4353 12.8547 21.8519Z" fill="white" fill-opacity="0.1"/>
</g>
<defs>
<filter id="filter0_bi_255_528" x="-2.78198" y="6.06433" width="72.3357" height="58.425" filterUnits="userSpaceOnUse" color-interpolation-filters="sRGB">
<feFlood flood-opacity="0" result="BackgroundImageFix"/>
<feGaussianBlur in="BackgroundImageFix" stdDeviation="4.17322"/>
<feComposite in2="SourceAlpha" operator="in" result="effect1_backgroundBlur_255_528"/>
<feBlend mode="normal" in="SourceGraphic" in2="effect1_backgroundBlur_255_528" result="shape"/>
<feColorMatrix in="SourceAlpha" type="matrix" values="0 0 0 0 0 0 0 0 0 0 0 0 0 0 0 0 0 0 127 0" result="hardAlpha"/>
<feOffset dy="1.39107"/>
<feGaussianBlur stdDeviation="2.78215"/>
<feComposite in2="hardAlpha" operator="arithmetic" k2="-1" k3="1"/>
<feColorMatrix type="matrix" values="0 0 0 0 1 0 0 0 0 1 0 0 0 0 1 0 0 0 0.15 0"/>
<feBlend mode="normal" in2="shape" result="effect2_innerShadow_255_528"/>
</filter>
<filter id="filter1_i_255_528" x="12.5198" y="21.3661" width="41.7322" height="19.984" filterUnits="userSpaceOnUse" color-interpolation-filters="sRGB">
<feFlood flood-opacity="0" result="BackgroundImageFix"/>
<feBlend mode="normal" in="SourceGraphic" in2="BackgroundImageFix" result="shape"/>
<feColorMatrix in="SourceAlpha" type="matrix" values="0 0 0 0 0 0 0 0 0 0 0 0 0 0 0 0 0 0 127 0" result="hardAlpha"/>
<feOffset dy="1.39107"/>
<feGaussianBlur stdDeviation="0.695536"/>
<feComposite in2="hardAlpha" operator="arithmetic" k2="-1" k3="1"/>
<feColorMatrix type="matrix" values="0 0 0 0 1 0 0 0 0 1 0 0 0 0 1 0 0 0 0.1 0"/>
<feBlend mode="normal" in2="shape" result="effect1_innerShadow_255_528"/>
</filter>
<linearGradient id="paint0_linear_255_528" x1="13.9109" y1="11.6287" x2="25.6966" y2="39.1287" gradientUnits="userSpaceOnUse">
<stop stop-color="#BAF2B5"/>
<stop offset="1" stop-color="#26AAD4"/>
</linearGradient>
<linearGradient id="paint1_linear_255_528" x1="5.56445" y1="14.4108" x2="44.6258" y2="66.4925" gradientUnits="userSpaceOnUse">
<stop stop-color="#BAF2B5"/>
<stop offset="1" stop-color="#26AAD4"/>
</linearGradient>
<linearGradient id="paint2_linear_255_528" x1="7.30329" y1="16.3077" x2="61.2074" y2="16.3077" gradientUnits="userSpaceOnUse">
<stop stop-color="#ADECB8"/>
<stop offset="1" stop-color="#2FAED3"/>
</linearGradient>
</defs>
</svg>
