<svg width="66" height="67" viewBox="0 0 66 67" fill="none" xmlns="http://www.w3.org/2000/svg">
<circle cx="27.5" cy="39" r="13.75" fill="url(#paint0_linear_257_978)"/>
<g filter="url(#filter0_bi_257_978)">
<path d="M23.5932 45.2392C17.3305 38.9766 13.6238 32.6028 11.6922 27.6796C9.81236 22.8886 11.9743 17.9671 15.6135 14.3279L17.2332 12.7083C19.0356 10.9059 22.0251 11.1533 23.5066 13.2275L28.6865 20.4793C29.711 21.9136 29.711 23.8403 28.6865 25.2745L27.1656 27.4038C26.1428 28.8357 25.9831 30.6271 26.9901 32.0701C28.2024 33.8072 29.9444 36.0341 31.3713 37.461C32.7983 38.888 35.0251 40.63 36.7623 41.8423C38.2053 42.8493 39.9967 42.6895 41.4286 41.6667L43.5578 40.1459C44.9921 39.1214 46.9188 39.1214 48.353 40.1459L55.6048 45.3257C57.679 46.8073 57.9265 49.7968 56.124 51.5992L54.5044 53.2188C50.8652 56.858 45.9437 59.02 41.1527 57.1402C36.2296 55.2085 29.8558 51.5018 23.5932 45.2392Z" fill="#1D1D1D" fill-opacity="0.05"/>
<path d="M23.5932 45.2392C17.3305 38.9766 13.6238 32.6028 11.6922 27.6796C9.81236 22.8886 11.9743 17.9671 15.6135 14.3279L17.2332 12.7083C19.0356 10.9059 22.0251 11.1533 23.5066 13.2275L28.6865 20.4793C29.711 21.9136 29.711 23.8403 28.6865 25.2745L27.1656 27.4038C26.1428 28.8357 25.9831 30.6271 26.9901 32.0701C28.2024 33.8072 29.9444 36.0341 31.3713 37.461C32.7983 38.888 35.0251 40.63 36.7623 41.8423C38.2053 42.8493 39.9967 42.6895 41.4286 41.6667L43.5578 40.1459C44.9921 39.1214 46.9188 39.1214 48.353 40.1459L55.6048 45.3257C57.679 46.8073 57.9265 49.7968 56.124 51.5992L54.5044 53.2188C50.8652 56.858 45.9437 59.02 41.1527 57.1402C36.2296 55.2085 29.8558 51.5018 23.5932 45.2392Z" fill="url(#paint1_linear_257_978)" fill-opacity="0.2"/>
<path fill-rule="evenodd" clip-rule="evenodd" d="M46.75 33.5013C45.2312 33.5013 44.0353 32.251 43.6606 30.7792C42.6708 26.8913 39.6101 23.8306 35.7222 22.8408C34.2503 22.4661 33 21.2701 33 19.7513C33 18.2326 34.2405 16.9773 35.7385 17.2275C42.6572 18.3832 48.1181 23.8442 49.2738 30.7629C49.524 32.2609 48.2688 33.5013 46.75 33.5013Z" fill="#1D1D1D" fill-opacity="0.05"/>
<path fill-rule="evenodd" clip-rule="evenodd" d="M46.75 33.5013C45.2312 33.5013 44.0353 32.251 43.6606 30.7792C42.6708 26.8913 39.6101 23.8306 35.7222 22.8408C34.2503 22.4661 33 21.2701 33 19.7513C33 18.2326 34.2405 16.9773 35.7385 17.2275C42.6572 18.3832 48.1181 23.8442 49.2738 30.7629C49.524 32.2609 48.2688 33.5013 46.75 33.5013Z" fill="url(#paint2_linear_257_978)" fill-opacity="0.2"/>
<path d="M23.7876 45.0447C17.5522 38.8093 13.8663 32.4677 11.9482 27.5792C10.1251 22.9329 12.2072 18.1232 15.808 14.5224L17.4276 12.9028C19.1099 11.2205 21.9001 11.4514 23.2829 13.3874L28.4627 20.6392C29.4189 21.9778 29.4189 23.7761 28.4627 25.1147L26.9418 27.2439C25.8639 28.7531 25.6794 30.6725 26.7646 32.2275C27.9813 33.9711 29.7339 36.2124 31.1769 37.6555C32.6199 39.0985 34.8613 40.851 36.6049 42.0678C38.1599 43.1529 40.0793 42.9685 41.5884 41.8905L43.7177 40.3696C45.0563 39.4135 46.8546 39.4135 48.1932 40.3696L55.445 45.5495C57.3809 46.9323 57.6118 49.7225 55.9296 51.4047L54.31 53.0244C50.7092 56.6251 45.8995 58.7072 41.2532 56.8842C36.3646 54.9661 30.023 51.2801 23.7876 45.0447ZM46.75 33.2263C45.395 33.2263 44.2812 32.1025 43.9271 30.7113C42.9124 26.7258 39.7755 23.5889 35.79 22.5743C34.3989 22.2201 33.275 21.1064 33.275 19.7513C33.275 18.3694 34.3939 17.2818 35.6932 17.4988C42.496 18.6351 47.8662 24.0053 49.0025 30.8082C49.2196 32.1074 48.1319 33.2263 46.75 33.2263Z" stroke="url(#paint3_linear_257_978)" stroke-opacity="0.1" stroke-width="0.55"/>
</g>
<defs>
<filter id="filter0_bi_257_978" x="2.75" y="3.25" width="62.8323" height="62.8323" filterUnits="userSpaceOnUse" color-interpolation-filters="sRGB">
<feFlood flood-opacity="0" result="BackgroundImageFix"/>
<feGaussianBlur in="BackgroundImageFix" stdDeviation="4.125"/>
<feComposite in2="SourceAlpha" operator="in" result="effect1_backgroundBlur_257_978"/>
<feBlend mode="normal" in="SourceGraphic" in2="effect1_backgroundBlur_257_978" result="shape"/>
<feColorMatrix in="SourceAlpha" type="matrix" values="0 0 0 0 0 0 0 0 0 0 0 0 0 0 0 0 0 0 127 0" result="hardAlpha"/>
<feOffset dy="1.375"/>
<feGaussianBlur stdDeviation="2.75"/>
<feComposite in2="hardAlpha" operator="arithmetic" k2="-1" k3="1"/>
<feColorMatrix type="matrix" values="0 0 0 0 1 0 0 0 0 1 0 0 0 0 1 0 0 0 0.15 0"/>
<feBlend mode="normal" in2="shape" result="effect2_innerShadow_257_978"/>
</filter>
<linearGradient id="paint0_linear_257_978" x1="13.75" y1="25.25" x2="40.5625" y2="52.0625" gradientUnits="userSpaceOnUse">
<stop stop-color="#BAF2B5"/>
<stop offset="1" stop-color="#26AAD4"/>
</linearGradient>
<linearGradient id="paint1_linear_257_978" x1="11" y1="11.5" x2="56.1741" y2="56.6741" gradientUnits="userSpaceOnUse">
<stop stop-color="#BAF2B5"/>
<stop offset="1" stop-color="#26AAD4"/>
</linearGradient>
<linearGradient id="paint2_linear_257_978" x1="11" y1="11.5" x2="56.1741" y2="56.6741" gradientUnits="userSpaceOnUse">
<stop stop-color="#BAF2B5"/>
<stop offset="1" stop-color="#26AAD4"/>
</linearGradient>
<linearGradient id="paint3_linear_257_978" x1="12.4479" y1="13.606" x2="57.3324" y2="13.606" gradientUnits="userSpaceOnUse">
<stop stop-color="#ADECB8"/>
<stop offset="1" stop-color="#2FAED3"/>
</linearGradient>
</defs>
</svg>
