<svg width="404" height="404" viewBox="0 0 404 404" fill="none" xmlns="http://www.w3.org/2000/svg">
<circle cx="280.833" cy="144.833" r="70.8333" fill="url(#paint0_linear_402_668)"/>
<g filter="url(#filter0_bi_402_668)">
<path d="M122.833 93C83.7132 93 52 124.713 52 163.833V234.667C52 273.787 83.7132 305.5 122.833 305.5H188.762C191.971 305.5 195.12 306.372 197.873 308.024L268.799 350.579C274.7 354.12 282.208 349.869 282.208 342.987V310.132C282.208 306.092 284.968 302.619 288.763 301.235C315.934 291.33 335.333 265.264 335.333 234.667V163.833C335.333 124.713 303.62 93 264.5 93H122.833Z" fill="#1D1D1D" fill-opacity="0.05"/>
<path d="M122.833 93C83.7132 93 52 124.713 52 163.833V234.667C52 273.787 83.7132 305.5 122.833 305.5H188.762C191.971 305.5 195.12 306.372 197.873 308.024L268.799 350.579C274.7 354.12 282.208 349.869 282.208 342.987V310.132C282.208 306.092 284.968 302.619 288.763 301.235C315.934 291.33 335.333 265.264 335.333 234.667V163.833C335.333 124.713 303.62 93 264.5 93H122.833Z" fill="url(#paint1_linear_402_668)" fill-opacity="0.2"/>
<path d="M53.7708 163.833C53.7708 125.691 84.6912 94.7708 122.833 94.7708H264.5C302.642 94.7708 333.562 125.691 333.562 163.833V234.667C333.562 264.496 314.65 289.913 288.157 299.572C283.758 301.175 280.437 305.25 280.437 310.132V342.987C280.437 348.493 274.431 351.893 269.71 349.061L198.784 306.505C195.756 304.689 192.292 303.729 188.762 303.729H122.833C84.6912 303.729 53.7708 272.809 53.7708 234.667V163.833Z" stroke="url(#paint2_linear_402_668)" stroke-opacity="0.1" stroke-width="3.54167"/>
</g>
<path d="M255.446 180.385C261.518 174.349 261.518 164.563 255.446 158.527C249.374 152.491 239.53 152.491 233.459 158.527L175.966 215.681L154.542 194.382C148.47 188.346 138.626 188.346 132.554 194.382C126.482 200.418 126.482 210.204 132.554 216.24L164.656 248.153C164.758 248.261 164.862 248.367 164.968 248.472C167.672 251.16 171.124 252.651 174.658 252.945C174.778 252.955 174.899 252.964 175.02 252.971C179.31 253.231 183.687 251.732 186.965 248.473C187.079 248.36 187.191 248.245 187.301 248.13L255.446 180.385Z" fill="white"/>
<defs>
<filter id="filter0_bi_402_668" x="-1.12499" y="39.875" width="389.583" height="365.105" filterUnits="userSpaceOnUse" color-interpolation-filters="sRGB">
<feFlood flood-opacity="0" result="BackgroundImageFix"/>
<feGaussianBlur in="BackgroundImageFix" stdDeviation="26.5625"/>
<feComposite in2="SourceAlpha" operator="in" result="effect1_backgroundBlur_402_668"/>
<feBlend mode="normal" in="SourceGraphic" in2="effect1_backgroundBlur_402_668" result="shape"/>
<feColorMatrix in="SourceAlpha" type="matrix" values="0 0 0 0 0 0 0 0 0 0 0 0 0 0 0 0 0 0 127 0" result="hardAlpha"/>
<feOffset dy="8.85417"/>
<feGaussianBlur stdDeviation="17.7083"/>
<feComposite in2="hardAlpha" operator="arithmetic" k2="-1" k3="1"/>
<feColorMatrix type="matrix" values="0 0 0 0 1 0 0 0 0 1 0 0 0 0 1 0 0 0 0.15 0"/>
<feBlend mode="normal" in2="shape" result="effect2_innerShadow_402_668"/>
</filter>
<linearGradient id="paint0_linear_402_668" x1="280.833" y1="74" x2="280.833" y2="215.667" gradientUnits="userSpaceOnUse">
<stop stop-color="#38C0C6"/>
<stop offset="0.973958" stop-color="#38C0C6" stop-opacity="0.0625"/>
<stop offset="1" stop-color="#38C0C6" stop-opacity="0"/>
</linearGradient>
<linearGradient id="paint1_linear_402_668" x1="52" y1="93" x2="310.446" y2="368.676" gradientUnits="userSpaceOnUse">
<stop stop-color="#BAF2B5"/>
<stop offset="1" stop-color="#26AAD4"/>
</linearGradient>
<linearGradient id="paint2_linear_402_668" x1="60.8542" y1="105.074" x2="335.333" y2="105.074" gradientUnits="userSpaceOnUse">
<stop stop-color="#ADECB8"/>
<stop offset="1" stop-color="#2FAED3"/>
</linearGradient>
</defs>
</svg>
