<svg width="107" height="104" viewBox="0 0 107 104" fill="none" xmlns="http://www.w3.org/2000/svg">
<rect x="0.5" width="106" height="104" rx="52" fill="#38C0C6" fill-opacity="0.12"/>
<path d="M62.8333 40.3334C62.8333 37.756 60.7439 35.6667 58.1666 35.6667H37.1666C34.5893 35.6667 32.4999 37.756 32.4999 40.3334V59.8913C32.4999 61.6258 34.3253 62.754 35.8768 61.9783L41.8333 59H58.1666C60.7439 59 62.8333 56.9107 62.8333 54.3334V40.3334Z" fill="url(#paint0_linear_255_338)"/>
<g filter="url(#filter0_bi_255_338)">
<path d="M44.1667 47.3334C44.1667 44.756 46.2561 42.6667 48.8334 42.6667H69.8334C72.4107 42.6667 74.5001 44.756 74.5001 47.3334V66.8913C74.5001 68.6258 72.6747 69.754 71.1232 68.9783L65.1667 66H48.8334C46.2561 66 44.1667 63.9107 44.1667 61.3334V47.3334Z" fill="#1D1D1D" fill-opacity="0.05"/>
<path d="M44.1667 47.3334C44.1667 44.756 46.2561 42.6667 48.8334 42.6667H69.8334C72.4107 42.6667 74.5001 44.756 74.5001 47.3334V66.8913C74.5001 68.6258 72.6747 69.754 71.1232 68.9783L65.1667 66H48.8334C46.2561 66 44.1667 63.9107 44.1667 61.3334V47.3334Z" fill="url(#paint1_linear_255_338)" fill-opacity="0.2"/>
<path d="M65.2711 65.7913L65.2218 65.7667H65.1667H48.8334C46.385 65.7667 44.4001 63.7818 44.4001 61.3334V47.3334C44.4001 44.8849 46.385 42.9 48.8334 42.9H69.8334C72.2819 42.9 74.2667 44.8849 74.2667 47.3334V66.8913C74.2667 68.4524 72.6239 69.4677 71.2276 68.7696L65.2711 65.7913Z" stroke="url(#paint2_linear_255_338)" stroke-opacity="0.1" stroke-width="0.466667"/>
</g>
<g filter="url(#filter1_i_255_338)">
<rect x="48.8333" y="47.3334" width="21" height="4.66667" rx="2.33333" fill="white" fill-opacity="0.1"/>
</g>
<g filter="url(#filter2_i_255_338)">
<rect x="48.8333" y="56.6667" width="21" height="4.66667" rx="2.33333" fill="white" fill-opacity="0.1"/>
</g>
<defs>
<filter id="filter0_bi_255_338" x="37.1667" y="35.6667" width="44.3333" height="40.5609" filterUnits="userSpaceOnUse" color-interpolation-filters="sRGB">
<feFlood flood-opacity="0" result="BackgroundImageFix"/>
<feGaussianBlur in="BackgroundImageFix" stdDeviation="3.5"/>
<feComposite in2="SourceAlpha" operator="in" result="effect1_backgroundBlur_255_338"/>
<feBlend mode="normal" in="SourceGraphic" in2="effect1_backgroundBlur_255_338" result="shape"/>
<feColorMatrix in="SourceAlpha" type="matrix" values="0 0 0 0 0 0 0 0 0 0 0 0 0 0 0 0 0 0 127 0" result="hardAlpha"/>
<feOffset dy="1.16667"/>
<feGaussianBlur stdDeviation="2.33333"/>
<feComposite in2="hardAlpha" operator="arithmetic" k2="-1" k3="1"/>
<feColorMatrix type="matrix" values="0 0 0 0 1 0 0 0 0 1 0 0 0 0 1 0 0 0 0.15 0"/>
<feBlend mode="normal" in2="shape" result="effect2_innerShadow_255_338"/>
</filter>
<filter id="filter1_i_255_338" x="48.8333" y="47.3334" width="21" height="5.83333" filterUnits="userSpaceOnUse" color-interpolation-filters="sRGB">
<feFlood flood-opacity="0" result="BackgroundImageFix"/>
<feBlend mode="normal" in="SourceGraphic" in2="BackgroundImageFix" result="shape"/>
<feColorMatrix in="SourceAlpha" type="matrix" values="0 0 0 0 0 0 0 0 0 0 0 0 0 0 0 0 0 0 127 0" result="hardAlpha"/>
<feOffset dy="1.16667"/>
<feGaussianBlur stdDeviation="0.583333"/>
<feComposite in2="hardAlpha" operator="arithmetic" k2="-1" k3="1"/>
<feColorMatrix type="matrix" values="0 0 0 0 1 0 0 0 0 1 0 0 0 0 1 0 0 0 0.1 0"/>
<feBlend mode="normal" in2="shape" result="effect1_innerShadow_255_338"/>
</filter>
<filter id="filter2_i_255_338" x="48.8333" y="56.6667" width="21" height="5.83333" filterUnits="userSpaceOnUse" color-interpolation-filters="sRGB">
<feFlood flood-opacity="0" result="BackgroundImageFix"/>
<feBlend mode="normal" in="SourceGraphic" in2="BackgroundImageFix" result="shape"/>
<feColorMatrix in="SourceAlpha" type="matrix" values="0 0 0 0 0 0 0 0 0 0 0 0 0 0 0 0 0 0 127 0" result="hardAlpha"/>
<feOffset dy="1.16667"/>
<feGaussianBlur stdDeviation="0.583333"/>
<feComposite in2="hardAlpha" operator="arithmetic" k2="-1" k3="1"/>
<feColorMatrix type="matrix" values="0 0 0 0 1 0 0 0 0 1 0 0 0 0 1 0 0 0 0.1 0"/>
<feBlend mode="normal" in2="shape" result="effect1_innerShadow_255_338"/>
</filter>
<linearGradient id="paint0_linear_255_338" x1="62.8333" y1="35.6667" x2="35.6205" y2="65.1472" gradientUnits="userSpaceOnUse">
<stop stop-color="#BAF2B5"/>
<stop offset="1" stop-color="#26AAD4"/>
</linearGradient>
<linearGradient id="paint1_linear_255_338" x1="44.1667" y1="42.6667" x2="71.3795" y2="72.1472" gradientUnits="userSpaceOnUse">
<stop stop-color="#BAF2B5"/>
<stop offset="1" stop-color="#26AAD4"/>
</linearGradient>
<linearGradient id="paint2_linear_255_338" x1="45.1147" y1="43.9394" x2="74.5001" y2="43.9394" gradientUnits="userSpaceOnUse">
<stop stop-color="#ADECB8"/>
<stop offset="1" stop-color="#2FAED3"/>
</linearGradient>
</defs>
</svg>
