<svg width="404" height="404" viewBox="0 0 404 404" fill="none" xmlns="http://www.w3.org/2000/svg">
<g filter="url(#filter0_bi_255_294)">
<circle cx="323.081" cy="99.5476" r="70.8369" fill="#1D1D1D" fill-opacity="0.05"/>
<circle cx="323.081" cy="99.5476" r="70.8369" fill="url(#paint0_linear_255_294)" fill-opacity="0.2"/>
<circle cx="323.081" cy="99.5476" r="70.0693" stroke="url(#paint1_linear_255_294)" stroke-opacity="0.1" stroke-width="1.53519"/>
</g>
<path fill-rule="evenodd" clip-rule="evenodd" d="M323.08 44.4524C327.427 44.4524 330.951 47.9763 330.951 52.3232V91.677H362.434C366.781 91.677 370.305 95.2008 370.305 99.5477C370.305 103.895 366.781 107.419 362.434 107.419H323.08C318.734 107.419 315.21 103.895 315.21 99.5477V52.3232C315.21 47.9763 318.734 44.4524 323.08 44.4524Z" fill="white"/>
<rect x="29.9319" y="284.355" width="314.287" height="44.8982" rx="14.9661" fill="#38C0C6"/>
<g filter="url(#filter1_bi_255_294)">
<mask id="path-6-inside-1_255_294" fill="white">
<path fill-rule="evenodd" clip-rule="evenodd" d="M149.661 67.347C149.661 54.9488 159.712 44.8979 172.11 44.8979H202.042C214.44 44.8979 224.491 54.9487 224.491 67.347V291.838C224.491 304.236 214.44 314.287 202.042 314.287H172.11C159.712 314.287 149.661 304.236 149.661 291.838V67.347ZM44.8982 157.143C44.8982 144.745 54.949 134.694 67.3473 134.694H97.2794C109.678 134.694 119.728 144.745 119.728 157.143V291.838C119.728 304.236 109.678 314.287 97.2794 314.287H67.3473C54.949 314.287 44.8982 304.236 44.8982 291.838V157.143ZM276.872 179.593C264.474 179.593 254.423 189.643 254.423 202.042V291.838C254.423 304.236 264.474 314.287 276.872 314.287H306.804C319.202 314.287 329.253 304.236 329.253 291.838V202.042C329.253 189.643 319.202 179.593 306.804 179.593H276.872Z"/>
</mask>
<path fill-rule="evenodd" clip-rule="evenodd" d="M149.661 67.347C149.661 54.9488 159.712 44.8979 172.11 44.8979H202.042C214.44 44.8979 224.491 54.9487 224.491 67.347V291.838C224.491 304.236 214.44 314.287 202.042 314.287H172.11C159.712 314.287 149.661 304.236 149.661 291.838V67.347ZM44.8982 157.143C44.8982 144.745 54.949 134.694 67.3473 134.694H97.2794C109.678 134.694 119.728 144.745 119.728 157.143V291.838C119.728 304.236 109.678 314.287 97.2794 314.287H67.3473C54.949 314.287 44.8982 304.236 44.8982 291.838V157.143ZM276.872 179.593C264.474 179.593 254.423 189.643 254.423 202.042V291.838C254.423 304.236 264.474 314.287 276.872 314.287H306.804C319.202 314.287 329.253 304.236 329.253 291.838V202.042C329.253 189.643 319.202 179.593 306.804 179.593H276.872Z" fill="#1D1D1D" fill-opacity="0.05"/>
<path fill-rule="evenodd" clip-rule="evenodd" d="M149.661 67.347C149.661 54.9488 159.712 44.8979 172.11 44.8979H202.042C214.44 44.8979 224.491 54.9487 224.491 67.347V291.838C224.491 304.236 214.44 314.287 202.042 314.287H172.11C159.712 314.287 149.661 304.236 149.661 291.838V67.347ZM44.8982 157.143C44.8982 144.745 54.949 134.694 67.3473 134.694H97.2794C109.678 134.694 119.728 144.745 119.728 157.143V291.838C119.728 304.236 109.678 314.287 97.2794 314.287H67.3473C54.949 314.287 44.8982 304.236 44.8982 291.838V157.143ZM276.872 179.593C264.474 179.593 254.423 189.643 254.423 202.042V291.838C254.423 304.236 264.474 314.287 276.872 314.287H306.804C319.202 314.287 329.253 304.236 329.253 291.838V202.042C329.253 189.643 319.202 179.593 306.804 179.593H276.872Z" fill="url(#paint2_linear_255_294)" fill-opacity="0.2"/>
<path d="M172.11 41.9047C158.058 41.9047 146.668 53.2957 146.668 67.347H152.654C152.654 56.6019 161.365 47.8912 172.11 47.8912V41.9047ZM202.042 41.9047H172.11V47.8912H202.042V41.9047ZM227.484 67.347C227.484 53.2956 216.093 41.9047 202.042 41.9047V47.8912C212.787 47.8912 221.498 56.6018 221.498 67.347H227.484ZM227.484 291.838V67.347H221.498V291.838H227.484ZM202.042 317.28C216.093 317.28 227.484 305.889 227.484 291.838H221.498C221.498 302.583 212.787 311.294 202.042 311.294V317.28ZM172.11 317.28H202.042V311.294H172.11V317.28ZM146.668 291.838C146.668 305.889 158.058 317.28 172.11 317.28V311.294C161.365 311.294 152.654 302.583 152.654 291.838H146.668ZM146.668 67.347V291.838H152.654V67.347H146.668ZM67.3473 131.701C53.2959 131.701 41.905 143.092 41.905 157.143H47.8914C47.8914 146.398 56.6021 137.687 67.3473 137.687V131.701ZM97.2794 131.701H67.3473V137.687H97.2794V131.701ZM122.722 157.143C122.722 143.092 111.331 131.701 97.2794 131.701V137.687C108.025 137.687 116.735 146.398 116.735 157.143H122.722ZM122.722 291.838V157.143H116.735V291.838H122.722ZM97.2794 317.28C111.331 317.28 122.722 305.889 122.722 291.838H116.735C116.735 302.583 108.025 311.294 97.2794 311.294V317.28ZM67.3473 317.28H97.2794V311.294H67.3473V317.28ZM41.905 291.838C41.905 305.889 53.2959 317.28 67.3473 317.28V311.294C56.6021 311.294 47.8914 302.583 47.8914 291.838H41.905ZM41.905 157.143V291.838H47.8914V157.143H41.905ZM257.416 202.042C257.416 191.297 266.127 182.586 276.872 182.586V176.599C262.821 176.599 251.43 187.99 251.43 202.042H257.416ZM257.416 291.838V202.042H251.43V291.838H257.416ZM276.872 311.294C266.127 311.294 257.416 302.583 257.416 291.838H251.43C251.43 305.889 262.82 317.28 276.872 317.28V311.294ZM306.804 311.294H276.872V317.28H306.804V311.294ZM326.26 291.838C326.26 302.583 317.549 311.294 306.804 311.294V317.28C320.855 317.28 332.246 305.889 332.246 291.838H326.26ZM326.26 202.042V291.838H332.246V202.042H326.26ZM306.804 182.586C317.549 182.586 326.26 191.297 326.26 202.042H332.246C332.246 187.99 320.855 176.599 306.804 176.599V182.586ZM276.872 182.586H306.804V176.599H276.872V182.586Z" fill="url(#paint3_linear_255_294)" fill-opacity="0.1" mask="url(#path-6-inside-1_255_294)"/>
</g>
<defs>
<filter id="filter0_bi_255_294" x="229.216" y="5.68286" width="187.729" height="187.729" filterUnits="userSpaceOnUse" color-interpolation-filters="sRGB">
<feFlood flood-opacity="0" result="BackgroundImageFix"/>
<feGaussianBlur in="BackgroundImageFix" stdDeviation="11.5139"/>
<feComposite in2="SourceAlpha" operator="in" result="effect1_backgroundBlur_255_294"/>
<feBlend mode="normal" in="SourceGraphic" in2="effect1_backgroundBlur_255_294" result="shape"/>
<feColorMatrix in="SourceAlpha" type="matrix" values="0 0 0 0 0 0 0 0 0 0 0 0 0 0 0 0 0 0 127 0" result="hardAlpha"/>
<feOffset dy="3.83797"/>
<feGaussianBlur stdDeviation="7.67594"/>
<feComposite in2="hardAlpha" operator="arithmetic" k2="-1" k3="1"/>
<feColorMatrix type="matrix" values="0 0 0 0 1 0 0 0 0 1 0 0 0 0 1 0 0 0 0.15 0"/>
<feBlend mode="normal" in2="shape" result="effect2_innerShadow_255_294"/>
</filter>
<filter id="filter1_bi_255_294" x="2.67029e-05" y="-0.000217438" width="374.151" height="359.185" filterUnits="userSpaceOnUse" color-interpolation-filters="sRGB">
<feFlood flood-opacity="0" result="BackgroundImageFix"/>
<feGaussianBlur in="BackgroundImageFix" stdDeviation="22.4491"/>
<feComposite in2="SourceAlpha" operator="in" result="effect1_backgroundBlur_255_294"/>
<feBlend mode="normal" in="SourceGraphic" in2="effect1_backgroundBlur_255_294" result="shape"/>
<feColorMatrix in="SourceAlpha" type="matrix" values="0 0 0 0 0 0 0 0 0 0 0 0 0 0 0 0 0 0 127 0" result="hardAlpha"/>
<feOffset dy="7.48303"/>
<feGaussianBlur stdDeviation="14.9661"/>
<feComposite in2="hardAlpha" operator="arithmetic" k2="-1" k3="1"/>
<feColorMatrix type="matrix" values="0 0 0 0 1 0 0 0 0 1 0 0 0 0 1 0 0 0 0.15 0"/>
<feBlend mode="normal" in2="shape" result="effect2_innerShadow_255_294"/>
</filter>
<linearGradient id="paint0_linear_255_294" x1="252.244" y1="28.7107" x2="390.376" y2="166.843" gradientUnits="userSpaceOnUse">
<stop stop-color="#BAF2B5"/>
<stop offset="1" stop-color="#26AAD4"/>
</linearGradient>
<linearGradient id="paint1_linear_255_294" x1="256.671" y1="35.1504" x2="393.917" y2="35.1504" gradientUnits="userSpaceOnUse">
<stop stop-color="#ADECB8"/>
<stop offset="1" stop-color="#2FAED3"/>
</linearGradient>
<linearGradient id="paint2_linear_255_294" x1="44.8982" y1="44.8979" x2="307.169" y2="321.739" gradientUnits="userSpaceOnUse">
<stop stop-color="#BAF2B5"/>
<stop offset="1" stop-color="#26AAD4"/>
</linearGradient>
<linearGradient id="paint3_linear_255_294" x1="53.7843" y1="57.1429" x2="329.253" y2="57.1429" gradientUnits="userSpaceOnUse">
<stop stop-color="#ADECB8"/>
<stop offset="1" stop-color="#2FAED3"/>
</linearGradient>
</defs>
</svg>
