<svg width="63" height="63" viewBox="0 0 63 63" fill="none" xmlns="http://www.w3.org/2000/svg">
<g clip-path="url(#clip0_402_483)">
<path d="M31.5961 1.29762L46.4887 8.57141L0.581543 30.8745V16.3654L31.5961 1.29762Z" stroke="white"/>
<path d="M32.0156 1.54238L62.5264 16.3654V30.8744L32.095 16.09L32.0156 1.54238Z" stroke="white"/>
<path d="M62.5267 16.8335V31.3425L31.5121 46.4104L16.6195 39.1366L62.5267 16.8335Z" stroke="white"/>
<path d="M0.581543 16.8336L31.0548 31.6382L31.0945 46.1665L0.581543 31.3424V16.8336Z" stroke="white"/>
<path d="M0.0379392 54.4371L1.68401 54.277C1.78308 54.8296 1.98312 55.2354 2.28414 55.4945C2.58897 55.7536 2.99858 55.8831 3.51298 55.8831C4.05786 55.8831 4.46747 55.7688 4.74182 55.5402C5.01997 55.3077 5.15905 55.0372 5.15905 54.7286C5.15905 54.5304 5.09999 54.3628 4.98187 54.2256C4.86756 54.0846 4.66561 53.9627 4.37602 53.8598C4.17789 53.7912 3.72636 53.6693 3.02144 53.494C2.11458 53.2692 1.47825 52.993 1.11246 52.6653C0.598061 52.2042 0.340862 51.6422 0.340862 50.9792C0.340862 50.5524 0.460888 50.1542 0.70094 49.7846C0.944803 49.4112 1.29345 49.1274 1.74688 48.933C2.20412 48.7387 2.75472 48.6415 3.39867 48.6415C4.45033 48.6415 5.24097 48.8721 5.77061 49.3331C6.30406 49.7942 6.58412 50.4095 6.6108 51.1792L4.919 51.2535C4.8466 50.823 4.69038 50.5143 4.45033 50.3276C4.21408 50.1371 3.85782 50.0418 3.38152 50.0418C2.88999 50.0418 2.50514 50.1428 2.22699 50.3448C2.0479 50.4743 1.95836 50.6477 1.95836 50.8649C1.95836 51.063 2.04218 51.2326 2.20984 51.3736C2.42322 51.5526 2.94143 51.7394 3.76446 51.9337C4.5875 52.128 5.19525 52.33 5.58772 52.5395C5.98399 52.7453 6.29263 53.0292 6.51363 53.3911C6.73844 53.7493 6.85085 54.1932 6.85085 54.7229C6.85085 55.203 6.71749 55.6526 6.45076 56.0717C6.18404 56.4909 5.80681 56.8033 5.31909 57.0091C4.83136 57.211 4.22361 57.312 3.49583 57.312C2.43656 57.312 1.62305 57.0681 1.0553 56.5804C0.487561 56.0889 0.148439 55.3744 0.0379392 54.4371ZM8.27401 57.1634V48.7844H10.9889C12.0177 48.7844 12.6883 48.8263 13.0008 48.9102C13.4809 49.0359 13.8829 49.3103 14.2067 49.7332C14.5306 50.1523 14.6926 50.6953 14.6926 51.3621C14.6926 51.8765 14.5992 52.309 14.4125 52.6596C14.2258 53.0101 13.9876 53.2864 13.698 53.4883C13.4123 53.6864 13.1208 53.8179 12.8236 53.8827C12.4197 53.9627 11.8348 54.0027 11.0689 54.0027H9.96581V57.1634H8.27401ZM9.96581 50.2019V52.5795H10.8917C11.5585 52.5795 12.0043 52.5357 12.2292 52.4481C12.454 52.3604 12.6292 52.2233 12.755 52.0366C12.8845 51.8499 12.9493 51.6327 12.9493 51.385C12.9493 51.0802 12.8598 50.8287 12.6807 50.6305C12.5016 50.4324 12.2749 50.3086 12.0005 50.259C11.7986 50.2209 11.3928 50.2019 10.7831 50.2019H9.96581ZM16.0814 57.1634V48.7844H22.2942V50.2019H17.7732V52.0594H21.9798V53.4712H17.7732V55.7517H22.4542V57.1634H16.0814ZM29.25 54.0827L30.8904 54.6028C30.6389 55.5173 30.2197 56.1975 29.6329 56.6433C29.05 57.0853 28.3088 57.3063 27.4096 57.3063C26.297 57.3063 25.3825 56.9271 24.6661 56.1689C23.9498 55.4068 23.5916 54.3666 23.5916 53.0482C23.5916 51.6536 23.9517 50.5715 24.6719 49.8018C25.392 49.0283 26.3389 48.6415 27.5125 48.6415C28.5375 48.6415 29.37 48.9445 30.0102 49.5503C30.3912 49.9085 30.677 50.4229 30.8675 51.0935L29.1928 51.4936C29.0938 51.0592 28.8861 50.7163 28.5699 50.4648C28.2574 50.2133 27.8764 50.0876 27.4267 50.0876C26.8057 50.0876 26.3008 50.3105 25.9121 50.7563C25.5273 51.2021 25.3349 51.9242 25.3349 52.9225C25.3349 53.9817 25.5254 54.7362 25.9064 55.1858C26.2874 55.6354 26.7828 55.8603 27.3925 55.8603C27.8421 55.8603 28.2288 55.7174 28.5527 55.4316C28.8766 55.1458 29.109 54.6962 29.25 54.0827ZM32.3421 48.7844H35.4342C36.1315 48.7844 36.663 48.8378 37.0288 48.9445C37.5204 49.0893 37.9414 49.3465 38.292 49.7161C38.6425 50.0857 38.9092 50.5391 39.0921 51.0764C39.275 51.6098 39.3665 52.269 39.3665 53.0539C39.3665 53.7436 39.2807 54.338 39.1093 54.8372C38.8997 55.4468 38.6006 55.9403 38.2119 56.3175C37.9185 56.6033 37.5223 56.8262 37.0231 56.9862C36.6497 57.1043 36.1505 57.1634 35.5256 57.1634H32.3421V48.7844ZM34.0339 50.2019V55.7517H35.297C35.7695 55.7517 36.1105 55.725 36.3201 55.6716C36.5945 55.6031 36.8212 55.4868 37.0003 55.323C37.1832 55.1591 37.3318 54.8905 37.4461 54.5171C37.5604 54.1399 37.6175 53.6274 37.6175 52.9796C37.6175 52.3319 37.5604 51.8346 37.4461 51.4879C37.3318 51.1411 37.1717 50.8706 36.966 50.6763C36.7602 50.4819 36.4992 50.3505 36.1829 50.2819C35.9467 50.2286 35.4837 50.2019 34.7941 50.2019H34.0339ZM40.8068 57.1634V48.7844H47.0196V50.2019H42.4986V52.0594H46.7052V53.4712H42.4986V55.7517H47.1796V57.1634H40.8068ZM48.1855 54.4371L49.8316 54.277C49.9307 54.8296 50.1307 55.2354 50.4317 55.4945C50.7366 55.7536 51.1462 55.8831 51.6606 55.8831C52.2055 55.8831 52.6151 55.7688 52.8894 55.5402C53.1676 55.3077 53.3067 55.0372 53.3067 54.7286C53.3067 54.5304 53.2476 54.3628 53.1295 54.2256C53.0152 54.0846 52.8132 53.9627 52.5236 53.8598C52.3255 53.7912 51.874 53.6693 51.169 53.494C50.2622 53.2692 49.6259 52.993 49.2601 52.6653C48.7457 52.2042 48.4885 51.6422 48.4885 50.9792C48.4885 50.5524 48.6085 50.1542 48.8485 49.7846C49.0924 49.4112 49.4411 49.1274 49.8945 48.933C50.3517 48.7387 50.9023 48.6415 51.5463 48.6415C52.5979 48.6415 53.3886 48.8721 53.9182 49.3331C54.4517 49.7942 54.7317 50.4095 54.7584 51.1792L53.0666 51.2535C52.9942 50.823 52.838 50.5143 52.5979 50.3276C52.3617 50.1371 52.0054 50.0418 51.5291 50.0418C51.0376 50.0418 50.6527 50.1428 50.3746 50.3448C50.1955 50.4743 50.106 50.6477 50.106 50.8649C50.106 51.063 50.1898 51.2326 50.3574 51.3736C50.5708 51.5526 51.089 51.7394 51.9121 51.9337C52.7351 52.128 53.3429 52.33 53.7353 52.5395C54.1316 52.7453 54.4402 53.0292 54.6612 53.3911C54.886 53.7493 54.9984 54.1932 54.9984 54.7229C54.9984 55.203 54.8651 55.6526 54.5984 56.0717C54.3316 56.4909 53.9544 56.8033 53.4667 57.0091C52.979 57.211 52.3712 57.312 51.6434 57.312C50.5842 57.312 49.7706 57.0681 49.2029 56.5804C48.6352 56.0889 48.296 55.3744 48.1855 54.4371ZM58.3077 57.1634V50.2019H55.8215V48.7844H62.4801V50.2019H59.9995V57.1634H58.3077Z" fill="white"/>
</g>
<defs>
<clipPath id="clip0_402_483">
<rect width="63" height="63" fill="white"/>
</clipPath>
</defs>
</svg>
