<svg width="75" height="75" viewBox="0 0 75 75" fill="none" xmlns="http://www.w3.org/2000/svg">
<g clip-path="url(#clip0_402_499)">
<path d="M56.703 10.2056L0.097168 37.7065V19.1102L37.6152 0.882812L56.703 10.2056Z" fill="url(#paint0_linear_402_499)" fill-opacity="0.65"/>
<path d="M37.6151 19.5284L75.0314 37.7063V19.1102L37.5134 0.882812L37.6151 19.5284Z" fill="url(#paint1_linear_402_499)" fill-opacity="0.65"/>
<path d="M75.0316 37.6854L37.5136 55.9128L18.4258 46.59L75.0316 19.0891V37.6854Z" fill="url(#paint2_linear_402_499)" fill-opacity="0.65"/>
<path d="M0.097168 37.6851L37.6152 55.9125L37.5643 37.2915L0.097168 19.0891V37.6851Z" fill="url(#paint3_linear_402_499)" fill-opacity="0.65"/>
<path d="M0.0452588 64.7109L2.00487 64.5204C2.12281 65.1782 2.36095 65.6613 2.71931 65.9697C3.0822 66.2782 3.56983 66.4324 4.18221 66.4324C4.83088 66.4324 5.31851 66.2963 5.64511 66.0242C5.97625 65.7474 6.14182 65.4254 6.14182 65.058C6.14182 64.8221 6.07151 64.6225 5.93089 64.4592C5.79481 64.2913 5.55439 64.1462 5.20965 64.0237C4.97377 63.9421 4.43624 63.7969 3.59705 63.5882C2.51745 63.3206 1.75992 62.9917 1.32445 62.6016C0.71207 62.0528 0.405881 61.3837 0.405881 60.5944C0.405881 60.0864 0.548769 59.6123 0.834546 59.1723C1.12486 58.7278 1.53991 58.3898 2.07971 58.1585C2.62405 57.9272 3.27952 57.8115 4.04613 57.8115C5.2981 57.8115 6.23935 58.0859 6.86987 58.6348C7.50493 59.1837 7.83833 59.9162 7.87009 60.8325L5.85604 60.921C5.76986 60.4084 5.58388 60.041 5.2981 59.8187C5.01686 59.5919 4.59273 59.4785 4.02572 59.4785C3.44055 59.4785 2.9824 59.5987 2.65127 59.8391C2.43807 59.9934 2.33147 60.1998 2.33147 60.4583C2.33147 60.6942 2.43126 60.8961 2.63085 61.0639C2.88488 61.2771 3.50179 61.4994 4.4816 61.7307C5.4614 61.962 6.18491 62.2025 6.65214 62.4519C7.12389 62.6969 7.49132 63.0348 7.75442 63.4658C8.02205 63.8922 8.15586 64.4206 8.15586 65.0512C8.15586 65.6227 7.9971 66.158 7.67957 66.6569C7.36204 67.1559 6.91296 67.5279 6.33234 67.7728C5.75171 68.0132 5.0282 68.1335 4.1618 68.1335C2.90075 68.1335 1.93229 67.8431 1.25641 67.2625C0.580522 66.6774 0.176807 65.8268 0.0452588 64.7109ZM9.85011 67.9565V57.9816H13.0821C14.3069 57.9816 15.1052 58.0315 15.4772 58.1313C16.0487 58.281 16.5273 58.6076 16.9129 59.1111C17.2984 59.6101 17.4912 60.2565 17.4912 61.0503C17.4912 61.6627 17.3801 62.1775 17.1578 62.5948C16.9355 63.0122 16.652 63.341 16.3073 63.5814C15.9671 63.8173 15.6201 63.9738 15.2663 64.0509C14.7854 64.1462 14.0891 64.1938 13.1774 64.1938H11.8642V67.9565H9.85011ZM11.8642 59.669V62.4996H12.9664C13.7603 62.4996 14.291 62.4474 14.5586 62.3431C14.8262 62.2387 15.0349 62.0754 15.1846 61.8532C15.3388 61.6309 15.4159 61.3723 15.4159 61.0775C15.4159 60.7146 15.3093 60.4152 15.0961 60.1793C14.8829 59.9435 14.613 59.796 14.2864 59.7371C14.046 59.6917 13.5629 59.669 12.8372 59.669H11.8642ZM19.1446 67.9565V57.9816H26.5408V59.669H21.1587V61.8804H26.1666V63.561H21.1587V66.2759H26.7313V67.9565H19.1446ZM34.8215 64.2891L36.7743 64.9083C36.4749 65.9969 35.976 66.8066 35.2774 67.3374C34.5834 67.8636 33.7011 68.1266 32.6306 68.1266C31.306 68.1266 30.2173 67.6753 29.3646 66.7726C28.5118 65.8654 28.0854 64.627 28.0854 63.0575C28.0854 61.3973 28.514 60.109 29.3714 59.1927C30.2287 58.2719 31.3559 57.8115 32.753 57.8115C33.9733 57.8115 34.9644 58.1721 35.7265 58.8933C36.1801 59.3197 36.5203 59.9321 36.7471 60.7305L34.7535 61.2068C34.6355 60.6897 34.3883 60.2814 34.0118 59.982C33.6399 59.6826 33.1862 59.5329 32.651 59.5329C31.9116 59.5329 31.3106 59.7983 30.8479 60.329C30.3897 60.8598 30.1606 61.7194 30.1606 62.9078C30.1606 64.1689 30.3874 65.067 30.8411 65.6023C31.2947 66.1376 31.8844 66.4052 32.6102 66.4052C33.1454 66.4052 33.6058 66.2351 33.9914 65.8949C34.377 65.5547 34.6537 65.0194 34.8215 64.2891Z" fill="white"/>
<path d="M38.5026 57.9816H42.1837C43.0138 57.9816 43.6466 58.0451 44.082 58.1721C44.6672 58.3445 45.1684 58.6507 45.5858 59.0907C46.0031 59.5307 46.3206 60.0705 46.5383 60.7101C46.7561 61.3451 46.8649 62.1299 46.8649 63.0643C46.8649 63.8854 46.7629 64.593 46.5588 65.1872C46.3093 65.913 45.9532 66.5004 45.4905 66.9495C45.1412 67.2897 44.6695 67.5551 44.0752 67.7456C43.6307 67.8862 43.0365 67.9565 42.2925 67.9565H38.5026V57.9816ZM40.5166 59.669V66.2759H42.0204C42.5828 66.2759 42.9888 66.2442 43.2383 66.1806C43.5649 66.099 43.8348 65.9606 44.048 65.7656C44.2657 65.5705 44.4427 65.2507 44.5787 64.8062C44.7148 64.3571 44.7829 63.747 44.7829 62.9759C44.7829 62.2047 44.7148 61.6128 44.5787 61.2C44.4427 60.7872 44.2521 60.4651 44.0072 60.2338C43.7622 60.0024 43.4515 59.8459 43.075 59.7643C42.7938 59.7008 42.2426 59.669 41.4216 59.669H40.5166ZM48.5796 67.9565V57.9816H55.9758V59.669H50.5937V61.8804H55.6015V63.561H50.5937V66.2759H56.1663V67.9565H48.5796ZM57.3638 64.7109L59.3234 64.5204C59.4414 65.1782 59.6795 65.6613 60.0379 65.9697C60.4008 66.2782 60.8884 66.4324 61.5008 66.4324C62.1495 66.4324 62.6371 66.2963 62.9637 66.0242C63.2948 65.7474 63.4604 65.4254 63.4604 65.058C63.4604 64.8221 63.3901 64.6225 63.2495 64.4592C63.1134 64.2913 62.873 64.1462 62.5282 64.0237C62.2923 63.9421 61.7548 63.7969 60.9156 63.5882C59.836 63.3206 59.0785 62.9917 58.643 62.6016C58.0306 62.0528 57.7245 61.3837 57.7245 60.5944C57.7245 60.0864 57.8673 59.6123 58.1531 59.1723C58.4434 58.7278 58.8585 58.3898 59.3983 58.1585C59.9426 57.9272 60.5981 57.8115 61.3647 57.8115C62.6167 57.8115 63.5579 58.0859 64.1884 58.6348C64.8235 59.1837 65.1569 59.9162 65.1887 60.8325L63.1746 60.921C63.0884 60.4084 62.9024 60.041 62.6167 59.8187C62.3354 59.5919 61.9113 59.4785 61.3443 59.4785C60.7591 59.4785 60.301 59.5987 59.9698 59.8391C59.7566 59.9934 59.65 60.1998 59.65 60.4583C59.65 60.6942 59.7498 60.8961 59.9494 61.0639C60.2035 61.2771 60.8204 61.4994 61.8002 61.7307C62.78 61.962 63.5035 62.2025 63.9707 62.4519C64.4425 62.6969 64.8099 63.0348 65.073 63.4658C65.3406 63.8922 65.4744 64.4206 65.4744 65.0512C65.4744 65.6227 65.3157 66.158 64.9981 66.6569C64.6806 67.1559 64.2315 67.5279 63.6509 67.7728C63.0703 68.0132 62.3468 68.1335 61.4804 68.1335C60.2193 68.1335 59.2509 67.8431 58.575 67.2625C57.8991 66.6774 57.4954 65.8268 57.3638 64.7109ZM69.4141 67.9565V59.669H66.4542V57.9816H74.3811V59.669H71.4281V67.9565H69.4141Z" fill="url(#paint4_linear_402_499)"/>
</g>
<defs>
<linearGradient id="paint0_linear_402_499" x1="28.4001" y1="0.882812" x2="28.4001" y2="37.7065" gradientUnits="userSpaceOnUse">
<stop stop-color="white"/>
<stop offset="1" stop-color="white" stop-opacity="0"/>
</linearGradient>
<linearGradient id="paint1_linear_402_499" x1="56.2724" y1="0.882812" x2="56.2724" y2="37.7063" gradientUnits="userSpaceOnUse">
<stop stop-color="white"/>
<stop offset="1" stop-color="white" stop-opacity="0"/>
</linearGradient>
<linearGradient id="paint2_linear_402_499" x1="46.7287" y1="19.0891" x2="46.7287" y2="55.9128" gradientUnits="userSpaceOnUse">
<stop stop-color="white"/>
<stop offset="1" stop-color="white" stop-opacity="0"/>
</linearGradient>
<linearGradient id="paint3_linear_402_499" x1="18.8562" y1="19.0891" x2="18.8562" y2="55.9125" gradientUnits="userSpaceOnUse">
<stop stop-color="white"/>
<stop offset="1" stop-color="white" stop-opacity="0"/>
</linearGradient>
<linearGradient id="paint4_linear_402_499" x1="37.5417" y1="54.9565" x2="37.5417" y2="70.9565" gradientUnits="userSpaceOnUse">
<stop stop-color="white"/>
<stop offset="1" stop-color="white" stop-opacity="0"/>
</linearGradient>
<clipPath id="clip0_402_499">
<rect width="75" height="75" fill="white"/>
</clipPath>
</defs>
</svg>
