<svg width="24" height="24" viewBox="0 0 24 24" fill="none" xmlns="http://www.w3.org/2000/svg">
<g clip-path="url(#clip0_402_530)">
<path d="M21.533 7.11349C22.509 6.42049 23.33 5.55549 23.999 4.55949V4.55849C23.106 4.94949 22.156 5.20949 21.164 5.33549C22.184 4.72649 22.963 3.76949 23.329 2.61649C22.378 3.18349 21.328 3.58349 20.209 3.80749C19.306 2.84549 18.019 2.25049 16.615 2.25049C13.891 2.25049 11.698 4.46149 11.698 7.17149C11.698 7.56149 11.731 7.93649 11.812 8.29349C7.72202 8.09349 4.10202 6.13349 1.67002 3.14649C1.24602 3.88349 0.996024 4.72649 0.996024 5.63349C0.996024 7.33749 1.87302 8.84749 3.18202 9.72249C2.39102 9.70749 1.61602 9.47749 0.959024 9.11649V9.17049C0.959024 11.5615 2.66402 13.5475 4.90102 14.0055C4.50002 14.1155 4.06402 14.1675 3.61102 14.1675C3.29602 14.1675 2.97802 14.1495 2.68002 14.0835C3.31702 16.0315 5.12702 17.4645 7.27702 17.5115C5.60302 18.8205 3.47702 19.6095 1.17602 19.6095C0.773024 19.6095 0.386023 19.5915 -0.000976562 19.5425C2.17902 20.9475 4.76102 21.7505 7.54702 21.7505C16.23 21.7505 21.889 14.5065 21.533 7.11349Z" fill="white"/>
</g>
<defs>
<clipPath id="clip0_402_530">
<rect width="24" height="24" fill="white"/>
</clipPath>
</defs>
</svg>
