<svg width="24" height="24" viewBox="0 0 24 24" fill="none" xmlns="http://www.w3.org/2000/svg">
<g clip-path="url(#clip0_402_526)">
<path d="M23.994 24.0002V23.9992H24V15.1972C24 10.8912 23.073 7.57422 18.039 7.57422C15.619 7.57422 13.995 8.90222 13.332 10.1612H13.262V7.97622H8.48901V23.9992H13.459V16.0652C13.459 13.9762 13.855 11.9562 16.442 11.9562C18.991 11.9562 19.029 14.3402 19.029 16.1992V24.0002H23.994Z" fill="white"/>
<path d="M0.398438 7.97729H5.37444V24.0003H0.398438V7.97729Z" fill="white"/>
<path d="M2.882 0.000488281C1.291 0.000488281 0 1.29149 0 2.88249C0 4.47349 1.291 5.79149 2.882 5.79149C4.473 5.79149 5.764 4.47349 5.764 2.88249C5.763 1.29149 4.472 0.000488281 2.882 0.000488281V0.000488281Z" fill="white"/>
</g>
<defs>
<clipPath id="clip0_402_526">
<rect width="24" height="24" fill="white"/>
</clipPath>
</defs>
</svg>
