<svg width="66" height="67" viewBox="0 0 66 67" fill="none" xmlns="http://www.w3.org/2000/svg">
<path d="M20.35 52.2C21.3887 50.8151 23.0188 50 24.75 50H41.25C42.9812 50 44.6113 50.8151 45.65 52.2L48.95 56.6C50.3097 58.4129 49.0161 61 46.75 61H19.25C16.9839 61 15.6903 58.4129 17.05 56.6L20.35 52.2Z" fill="url(#paint0_linear_255_532)"/>
<g filter="url(#filter0_bi_255_532)">
<path d="M52.25 28C52.25 41.75 37.125 55.5 33 55.5C28.875 55.5 13.75 41.75 13.75 28C13.75 17.3685 22.3685 8.75 33 8.75C43.6315 8.75 52.25 17.3685 52.25 28Z" fill="#1D1D1D" fill-opacity="0.05"/>
<path d="M52.25 28C52.25 41.75 37.125 55.5 33 55.5C28.875 55.5 13.75 41.75 13.75 28C13.75 17.3685 22.3685 8.75 33 8.75C43.6315 8.75 52.25 17.3685 52.25 28Z" fill="url(#paint1_linear_255_532)" fill-opacity="0.2"/>
<path d="M51.975 28C51.975 34.7818 48.2396 41.5954 43.9606 46.7302C41.8243 49.2938 39.5621 51.4271 37.5827 52.917C36.5927 53.6621 35.678 54.2429 34.8888 54.6362C34.0923 55.0331 33.4511 55.225 33 55.225C32.5488 55.225 31.9077 55.0331 31.1112 54.6362C30.322 54.2429 29.4073 53.6621 28.4173 52.917C26.4379 51.4271 24.1757 49.2938 22.0394 46.7302C17.7604 41.5954 14.025 34.7818 14.025 28C14.025 17.5204 22.5204 9.025 33 9.025C43.4796 9.025 51.975 17.5204 51.975 28Z" stroke="url(#paint2_linear_255_532)" stroke-opacity="0.1" stroke-width="0.55"/>
</g>
<g filter="url(#filter1_i_255_532)">
<circle cx="33" cy="28" r="8.25" fill="white" fill-opacity="0.1"/>
</g>
<defs>
<filter id="filter0_bi_255_532" x="5.5" y="0.500001" width="55" height="63.25" filterUnits="userSpaceOnUse" color-interpolation-filters="sRGB">
<feFlood flood-opacity="0" result="BackgroundImageFix"/>
<feGaussianBlur in="BackgroundImageFix" stdDeviation="4.125"/>
<feComposite in2="SourceAlpha" operator="in" result="effect1_backgroundBlur_255_532"/>
<feBlend mode="normal" in="SourceGraphic" in2="effect1_backgroundBlur_255_532" result="shape"/>
<feColorMatrix in="SourceAlpha" type="matrix" values="0 0 0 0 0 0 0 0 0 0 0 0 0 0 0 0 0 0 127 0" result="hardAlpha"/>
<feOffset dy="1.375"/>
<feGaussianBlur stdDeviation="2.75"/>
<feComposite in2="hardAlpha" operator="arithmetic" k2="-1" k3="1"/>
<feColorMatrix type="matrix" values="0 0 0 0 1 0 0 0 0 1 0 0 0 0 1 0 0 0 0.15 0"/>
<feBlend mode="normal" in2="shape" result="effect2_innerShadow_255_532"/>
</filter>
<filter id="filter1_i_255_532" x="24.75" y="19.75" width="16.5" height="17.875" filterUnits="userSpaceOnUse" color-interpolation-filters="sRGB">
<feFlood flood-opacity="0" result="BackgroundImageFix"/>
<feBlend mode="normal" in="SourceGraphic" in2="BackgroundImageFix" result="shape"/>
<feColorMatrix in="SourceAlpha" type="matrix" values="0 0 0 0 0 0 0 0 0 0 0 0 0 0 0 0 0 0 127 0" result="hardAlpha"/>
<feOffset dy="1.375"/>
<feGaussianBlur stdDeviation="0.6875"/>
<feComposite in2="hardAlpha" operator="arithmetic" k2="-1" k3="1"/>
<feColorMatrix type="matrix" values="0 0 0 0 1 0 0 0 0 1 0 0 0 0 1 0 0 0 0.1 0"/>
<feBlend mode="normal" in2="shape" result="effect1_innerShadow_255_532"/>
</filter>
<linearGradient id="paint0_linear_255_532" x1="13.75" y1="50" x2="19.416" y2="69.8311" gradientUnits="userSpaceOnUse">
<stop stop-color="#BAF2B5"/>
<stop offset="1" stop-color="#26AAD4"/>
</linearGradient>
<linearGradient id="paint1_linear_255_532" x1="13.75" y1="8.75" x2="58.4854" y2="45.5909" gradientUnits="userSpaceOnUse">
<stop stop-color="#BAF2B5"/>
<stop offset="1" stop-color="#26AAD4"/>
</linearGradient>
<linearGradient id="paint2_linear_255_532" x1="14.9531" y1="10.875" x2="52.25" y2="10.875" gradientUnits="userSpaceOnUse">
<stop stop-color="#ADECB8"/>
<stop offset="1" stop-color="#2FAED3"/>
</linearGradient>
</defs>
</svg>
