<svg width="107" height="104" viewBox="0 0 107 104" fill="none" xmlns="http://www.w3.org/2000/svg">
<rect x="0.5" width="106" height="104" rx="52" fill="#38C0C6" fill-opacity="0.12"/>
<circle cx="44.3196" cy="56.3189" r="10.125" transform="rotate(45 44.3196 56.3189)" fill="url(#paint0_linear_255_331)"/>
<g filter="url(#filter0_bi_255_331)">
<path d="M65.8282 34.904L62.0459 34.3637C55.7141 33.4592 49.2859 33.4592 42.9541 34.3637L39.1718 34.904C37.7822 35.1026 36.75 36.2927 36.75 37.6964V45.2274C36.75 55.7537 42.3903 65.4731 51.5298 70.6956C52.131 71.0391 52.869 71.0391 53.4702 70.6956C62.6097 65.4731 68.25 55.7537 68.25 45.2274V37.6964C68.25 36.2927 67.2178 35.1026 65.8282 34.904Z" fill="#1D1D1D" fill-opacity="0.05"/>
<path d="M65.8282 34.904L62.0459 34.3637C55.7141 33.4592 49.2859 33.4592 42.9541 34.3637L39.1718 34.904C37.7822 35.1026 36.75 36.2927 36.75 37.6964V45.2274C36.75 55.7537 42.3903 65.4731 51.5298 70.6956C52.131 71.0391 52.869 71.0391 53.4702 70.6956C62.6097 65.4731 68.25 55.7537 68.25 45.2274V37.6964C68.25 36.2927 67.2178 35.1026 65.8282 34.904Z" fill="url(#paint1_linear_255_331)" fill-opacity="0.2"/>
<path d="M62.0141 34.5865L65.7964 35.1268C67.0752 35.3095 68.025 36.4046 68.025 37.6964V45.2274C68.025 55.673 62.4279 65.3178 53.3586 70.5002C52.8266 70.8043 52.1734 70.8043 51.6414 70.5002C42.5721 65.3178 36.975 55.673 36.975 45.2274V37.6964C36.975 36.4046 37.9248 35.3095 39.2036 35.1268L42.9859 34.5865C49.2966 33.6849 55.7034 33.6849 62.0141 34.5865Z" stroke="url(#paint2_linear_255_331)" stroke-opacity="0.1" stroke-width="0.45"/>
</g>
<g filter="url(#filter1_i_255_331)">
<path d="M60.879 47.848C61.707 47.0249 61.707 45.6904 60.879 44.8673C60.0511 44.0442 58.7087 44.0442 57.8807 44.8673L50.0409 52.661L47.1193 49.7566C46.2913 48.9335 44.9489 48.9335 44.121 49.7566C43.293 50.5797 43.293 51.9142 44.121 52.7373L48.4986 57.0891C48.5125 57.1038 48.5267 57.1183 48.5411 57.1326C48.9098 57.4991 49.3805 57.7025 49.8624 57.7425C49.8788 57.7439 49.8953 57.7451 49.9118 57.7461C50.4968 57.7815 51.0937 57.5771 51.5407 57.1327C51.5563 57.1173 51.5715 57.1017 51.5864 57.0859L60.879 47.848Z" fill="white" fill-opacity="0.1"/>
</g>
<defs>
<filter id="filter0_bi_255_331" x="30" y="26.9353" width="45" height="50.768" filterUnits="userSpaceOnUse" color-interpolation-filters="sRGB">
<feFlood flood-opacity="0" result="BackgroundImageFix"/>
<feGaussianBlur in="BackgroundImageFix" stdDeviation="3.375"/>
<feComposite in2="SourceAlpha" operator="in" result="effect1_backgroundBlur_255_331"/>
<feBlend mode="normal" in="SourceGraphic" in2="effect1_backgroundBlur_255_331" result="shape"/>
<feColorMatrix in="SourceAlpha" type="matrix" values="0 0 0 0 0 0 0 0 0 0 0 0 0 0 0 0 0 0 127 0" result="hardAlpha"/>
<feOffset dy="1.125"/>
<feGaussianBlur stdDeviation="2.25"/>
<feComposite in2="hardAlpha" operator="arithmetic" k2="-1" k3="1"/>
<feColorMatrix type="matrix" values="0 0 0 0 1 0 0 0 0 1 0 0 0 0 1 0 0 0 0.15 0"/>
<feBlend mode="normal" in2="shape" result="effect2_innerShadow_255_331"/>
</filter>
<filter id="filter1_i_255_331" x="43.5" y="44.25" width="18" height="14.625" filterUnits="userSpaceOnUse" color-interpolation-filters="sRGB">
<feFlood flood-opacity="0" result="BackgroundImageFix"/>
<feBlend mode="normal" in="SourceGraphic" in2="BackgroundImageFix" result="shape"/>
<feColorMatrix in="SourceAlpha" type="matrix" values="0 0 0 0 0 0 0 0 0 0 0 0 0 0 0 0 0 0 127 0" result="hardAlpha"/>
<feOffset dy="1.125"/>
<feGaussianBlur stdDeviation="0.5625"/>
<feComposite in2="hardAlpha" operator="arithmetic" k2="-1" k3="1"/>
<feColorMatrix type="matrix" values="0 0 0 0 1 0 0 0 0 1 0 0 0 0 1 0 0 0 0.1 0"/>
<feBlend mode="normal" in2="shape" result="effect1_innerShadow_255_331"/>
</filter>
<linearGradient id="paint0_linear_255_331" x1="34.1946" y1="46.1939" x2="53.9383" y2="65.9377" gradientUnits="userSpaceOnUse">
<stop stop-color="#BAF2B5"/>
<stop offset="1" stop-color="#26AAD4"/>
</linearGradient>
<linearGradient id="paint1_linear_255_331" x1="36.75" y1="33" x2="73.3517" y2="63.1426" gradientUnits="userSpaceOnUse">
<stop stop-color="#BAF2B5"/>
<stop offset="1" stop-color="#26AAD4"/>
</linearGradient>
<linearGradient id="paint2_linear_255_331" x1="37.7344" y1="34.7386" x2="68.25" y2="34.7386" gradientUnits="userSpaceOnUse">
<stop stop-color="#ADECB8"/>
<stop offset="1" stop-color="#2FAED3"/>
</linearGradient>
</defs>
</svg>
