<svg width="404" height="404" viewBox="0 0 404 404" fill="none" xmlns="http://www.w3.org/2000/svg">
<circle cx="202" cy="202" r="84.1667" fill="url(#paint0_linear_255_312)"/>
<g filter="url(#filter0_bi_255_312)">
<path d="M67.3335 101C67.3335 82.4064 82.4066 67.3333 101 67.3333H151.5C170.094 67.3333 185.167 82.4064 185.167 101V151.5C185.167 170.094 170.094 185.167 151.5 185.167H101C82.4066 185.167 67.3335 170.094 67.3335 151.5V101Z" fill="#1D1D1D" fill-opacity="0.05"/>
<path d="M67.3335 101C67.3335 82.4064 82.4066 67.3333 101 67.3333H151.5C170.094 67.3333 185.167 82.4064 185.167 101V151.5C185.167 170.094 170.094 185.167 151.5 185.167H101C82.4066 185.167 67.3335 170.094 67.3335 151.5V101Z" fill="url(#paint1_linear_255_312)" fill-opacity="0.2"/>
<path d="M67.3335 252.5C67.3335 233.906 82.4066 218.833 101 218.833H151.5C170.094 218.833 185.167 233.906 185.167 252.5V303C185.167 321.594 170.094 336.667 151.5 336.667H101C82.4066 336.667 67.3335 321.594 67.3335 303V252.5Z" fill="#1D1D1D" fill-opacity="0.05"/>
<path d="M67.3335 252.5C67.3335 233.906 82.4066 218.833 101 218.833H151.5C170.094 218.833 185.167 233.906 185.167 252.5V303C185.167 321.594 170.094 336.667 151.5 336.667H101C82.4066 336.667 67.3335 321.594 67.3335 303V252.5Z" fill="url(#paint2_linear_255_312)" fill-opacity="0.2"/>
<path d="M218.834 101C218.834 82.4064 233.907 67.3333 252.5 67.3333H303C321.594 67.3333 336.667 82.4064 336.667 101V151.5C336.667 170.094 321.594 185.167 303 185.167H252.5C233.907 185.167 218.834 170.094 218.834 151.5V101Z" fill="#1D1D1D" fill-opacity="0.05"/>
<path d="M218.834 101C218.834 82.4064 233.907 67.3333 252.5 67.3333H303C321.594 67.3333 336.667 82.4064 336.667 101V151.5C336.667 170.094 321.594 185.167 303 185.167H252.5C233.907 185.167 218.834 170.094 218.834 151.5V101Z" fill="url(#paint3_linear_255_312)" fill-opacity="0.2"/>
<path d="M218.834 252.5C218.834 233.906 233.907 218.833 252.5 218.833H303C321.594 218.833 336.667 233.906 336.667 252.5V303C336.667 321.594 321.594 336.667 303 336.667H252.5C233.907 336.667 218.834 321.594 218.834 303V252.5Z" fill="#1D1D1D" fill-opacity="0.05"/>
<path d="M218.834 252.5C218.834 233.906 233.907 218.833 252.5 218.833H303C321.594 218.833 336.667 233.906 336.667 252.5V303C336.667 321.594 321.594 336.667 303 336.667H252.5C233.907 336.667 218.834 321.594 218.834 303V252.5Z" fill="url(#paint4_linear_255_312)" fill-opacity="0.2"/>
<path d="M101 69.0166H151.5C169.164 69.0166 183.483 83.3361 183.483 101V151.5C183.483 169.164 169.164 183.483 151.5 183.483H101C83.3363 183.483 69.0168 169.164 69.0168 151.5V101C69.0168 83.3361 83.3363 69.0166 101 69.0166ZM101 220.517H151.5C169.164 220.517 183.483 234.836 183.483 252.5V303C183.483 320.664 169.164 334.983 151.5 334.983H101C83.3363 334.983 69.0168 320.664 69.0168 303V252.5C69.0168 234.836 83.3363 220.517 101 220.517ZM252.5 69.0166H303C320.664 69.0166 334.984 83.3361 334.984 101V151.5C334.984 169.164 320.664 183.483 303 183.483H252.5C234.836 183.483 220.517 169.164 220.517 151.5V101C220.517 83.3361 234.836 69.0166 252.5 69.0166ZM252.5 220.517H303C320.664 220.517 334.984 234.836 334.984 252.5V303C334.984 320.664 320.664 334.983 303 334.983H252.5C234.836 334.983 220.517 320.664 220.517 303V252.5C220.517 234.836 234.836 220.517 252.5 220.517Z" stroke="url(#paint5_linear_255_312)" stroke-opacity="0.1" stroke-width="3.36667"/>
</g>
<path d="M277.309 91.22L331.041 37.4884C333.452 35.0765 337.363 35.0765 339.775 37.4884L359.623 57.3367C362.035 59.7486 362.035 63.659 359.623 66.0708L305.891 119.802C304.733 120.961 303.162 121.611 301.524 121.611H281.676C278.265 121.611 275.5 118.846 275.5 115.435V95.587C275.5 93.9491 276.151 92.3782 277.309 91.22Z" fill="white" stroke="url(#paint6_linear_255_312)" stroke-width="3"/>
<defs>
<filter id="filter0_bi_255_312" x="16.8335" y="16.8333" width="370.333" height="370.333" filterUnits="userSpaceOnUse" color-interpolation-filters="sRGB">
<feFlood flood-opacity="0" result="BackgroundImageFix"/>
<feGaussianBlur in="BackgroundImageFix" stdDeviation="25.25"/>
<feComposite in2="SourceAlpha" operator="in" result="effect1_backgroundBlur_255_312"/>
<feBlend mode="normal" in="SourceGraphic" in2="effect1_backgroundBlur_255_312" result="shape"/>
<feColorMatrix in="SourceAlpha" type="matrix" values="0 0 0 0 0 0 0 0 0 0 0 0 0 0 0 0 0 0 127 0" result="hardAlpha"/>
<feOffset dy="8.41667"/>
<feGaussianBlur stdDeviation="16.8333"/>
<feComposite in2="hardAlpha" operator="arithmetic" k2="-1" k3="1"/>
<feColorMatrix type="matrix" values="0 0 0 0 1 0 0 0 0 1 0 0 0 0 1 0 0 0 0.15 0"/>
<feBlend mode="normal" in2="shape" result="effect2_innerShadow_255_312"/>
</filter>
<linearGradient id="paint0_linear_255_312" x1="202" y1="117.833" x2="202" y2="286.167" gradientUnits="userSpaceOnUse">
<stop stop-color="#38C0C6"/>
<stop offset="0.668966" stop-color="#38C0C6" stop-opacity="0.521218"/>
<stop offset="1" stop-color="#38C0C6" stop-opacity="0"/>
</linearGradient>
<linearGradient id="paint1_linear_255_312" x1="67.3335" y1="67.3333" x2="329.933" y2="329.933" gradientUnits="userSpaceOnUse">
<stop stop-color="#BAF2B5"/>
<stop offset="1" stop-color="#26AAD4"/>
</linearGradient>
<linearGradient id="paint2_linear_255_312" x1="67.3335" y1="67.3333" x2="329.933" y2="329.933" gradientUnits="userSpaceOnUse">
<stop stop-color="#BAF2B5"/>
<stop offset="1" stop-color="#26AAD4"/>
</linearGradient>
<linearGradient id="paint3_linear_255_312" x1="67.3335" y1="67.3333" x2="329.933" y2="329.933" gradientUnits="userSpaceOnUse">
<stop stop-color="#BAF2B5"/>
<stop offset="1" stop-color="#26AAD4"/>
</linearGradient>
<linearGradient id="paint4_linear_255_312" x1="67.3335" y1="67.3333" x2="329.933" y2="329.933" gradientUnits="userSpaceOnUse">
<stop stop-color="#BAF2B5"/>
<stop offset="1" stop-color="#26AAD4"/>
</linearGradient>
<linearGradient id="paint5_linear_255_312" x1="75.7502" y1="79.5757" x2="336.667" y2="79.5757" gradientUnits="userSpaceOnUse">
<stop stop-color="#ADECB8"/>
<stop offset="1" stop-color="#2FAED3"/>
</linearGradient>
<linearGradient id="paint6_linear_255_312" x1="276.878" y1="35.1869" x2="366.111" y2="35.1869" gradientUnits="userSpaceOnUse">
<stop stop-color="#ADECB8"/>
<stop offset="1" stop-color="#2FAED3"/>
</linearGradient>
</defs>
</svg>
