<svg width="34" height="34" viewBox="0 0 34 34" fill="none" xmlns="http://www.w3.org/2000/svg">
<rect width="34" height="34" rx="17" fill="white"/>
<path d="M19.0035 21.4465L19.0003 21.4434L14.7494 17.2671C14.6743 17.1659 14.6499 17.0748 14.6499 17.0001C14.6499 16.9254 14.6743 16.8343 14.7494 16.7331L19.0003 12.5568L19.0003 12.5568L19.0035 12.5537C19.0489 12.5082 19.0746 12.4939 19.0873 12.4883C19.098 12.4835 19.1207 12.4751 19.1749 12.4751C19.2291 12.4751 19.2518 12.4835 19.2625 12.4883C19.2753 12.4939 19.3009 12.5082 19.3463 12.5537C19.4511 12.6584 19.4511 12.7918 19.3463 12.8965L19.3463 12.8965L19.3428 12.9001L15.6678 16.6501L15.3248 17.0001L15.6678 17.3501L19.3428 21.1001L19.3428 21.1001L19.3463 21.1037C19.4511 21.2084 19.4511 21.3418 19.3463 21.4465C19.2416 21.5513 19.1082 21.5513 19.0035 21.4465Z" fill="#38C0C6" stroke="#38C0C6"/>
<rect x="0.5" y="0.5" width="33" height="33" rx="16.5" stroke="#38C0C6" stroke-opacity="0.32"/>
</svg>
